<mxfile host="app.diagrams.net" modified="2023-04-18T11:27:23.862Z" agent="Mozilla/5.0 (Windows NT 10.0; Win64; x64) AppleWebKit/537.36 (KHTML, like Gecko) Chrome/112.0.0.0 Safari/537.36" version="21.1.8" etag="un449O7cEkMjvxsrrk8R" type="github">
  <diagram name="페이지-1" id="wDi-AwQdpDE1fQr6Vk7F">
    <mxGraphModel>
      <root>
        <mxCell id="0" />
        <mxCell id="1" parent="0" />
      </root>
    </mxGraphModel>
  </diagram>
</mxfile>
